<svg width="40" height="40" viewBox="0 0 40 40" fill="none" xmlns="http://www.w3.org/2000/svg">
<rect width="40" height="40" rx="4" fill="#F8FBFE"/>
<path d="M32.9745 28.5386H6.81433C6.36472 28.5386 6.00021 28.903 6.00021 29.3527C6.00021 30.7016 7.09368 31.795 8.44255 31.795H31.3463C32.6951 31.795 33.7886 30.7016 33.7886 29.3527C33.7886 28.903 33.4241 28.5386 32.9745 28.5386Z" fill="#7264D6"/>
<path d="M26.4075 13.0705V12.6635C26.4075 12.355 26.2334 12.0736 25.9575 11.9352L20.2588 9.08585C20.0298 8.97138 19.7595 8.97138 19.5305 9.08585L13.8317 11.9352C13.5558 12.0736 13.3817 12.355 13.3817 12.6635V13.0705C13.3817 13.5205 13.7459 13.8847 14.1958 13.8847H25.5934C26.0434 13.8847 26.4075 13.5205 26.4075 13.0705Z" fill="#7264D6"/>
<path d="M15.824 15.5128H19.0804V22.0257H15.824V15.5128Z" fill="#7264D6"/>
<path d="M20.7084 15.5128H23.9649V22.0257H20.7084V15.5128Z" fill="#7264D6"/>
<path d="M11.8099 12.2563H8.44265C7.99267 12.2563 7.62854 12.6205 7.62854 13.0705V26.9104H32.1605V13.0705C32.1605 12.6205 31.7963 12.2563 31.3464 12.2563H27.9791C28.0018 12.3912 28.0356 12.5232 28.0356 12.6634V13.0705C28.0356 14.4172 26.9401 15.5128 25.5933 15.5128V22.0257H26.4074C26.8574 22.0257 27.2215 22.3898 27.2215 22.8398C27.2215 23.2898 26.8574 23.6539 26.4074 23.6539H13.3816C12.9316 23.6539 12.5675 23.2898 12.5675 22.8398C12.5675 22.3898 12.9316 22.0257 13.3816 22.0257H14.1957V15.5128C12.849 15.5128 11.7534 14.4172 11.7534 13.0705V12.6634C11.7534 12.5232 11.7872 12.3912 11.8099 12.2563V12.2563Z" fill="#7264D6"/>
</svg>
